#!OML:ASF E:\CV Data\Top Level 1\Subject 1\Session 1\player.ASF
:FULLY-SPECIFIED
:DEGREES
825
root 8.27691 17.283 -10.1221 25.3051 -79.5748 -19.7657
lowerback 8.53497 0.871549 3.82077
upperback 0.974174 1.53363 1.47613
thorax -3.71476 0.695669 -0.792476
lowerneck -15.1097 12.6337 -2.81649
upperneck 16.3862 17.6232 1.20707
head 7.12068 8.35389 2.59767
rclavicle 2.72335e-014 -3.37934e-015
rhumerus 139.98 138.324 76.8561
rradius 95.4569
rwrist 6.50035
rhand -32.0362 25.4485
rfingers 7.12502
rthumb -5.28365 -4.46563
lclavicle 2.72335e-014 -3.37934e-015
lhumerus -41.9518 -35.9536 113.338
lradius 95.17
lwrist 37.7369
lhand -24.5755 12.0678
lfingers 7.12502
lthumb 1.92159 42.0389
rfemur -30.2245 2.02086 27.8767
rtibia 38.7131
rfoot -12.8498 -4.5885
rtoes 14.7595
lfemur -11.8885 13.1417 -14.9742
ltibia 55.2696
lfoot -14.6711 -2.5348
ltoes -12.8441
826
root 8.3441 17.2849 -10.1284 23.7596 -79.0525 -18.0291
lowerback 8.47151 0.783687 3.79225
upperback 0.935575 1.4143 1.49989
thorax -3.72565 0.637005 -0.737612
lowerneck -15.1197 12.5822 -2.80041
upperneck 16.3132 17.5662 1.10692
head 7.11144 8.32037 2.55793
rclavicle -6.32135e-014 -2.28602e-014
rhumerus 139.908 138.274 76.8721
rradius 95.5265
rwrist 6.67625
rhand -31.7589 25.4876
rfingers 7.12502
rthumb -5.01596 -4.433
lclavicle -6.32135e-014 -2.28602e-014
lhumerus -42.0027 -35.9078 113.347
lradius 95.2258
lwrist 37.7461
lhand -24.3942 11.909
lfingers 7.12502
lthumb 2.09661 41.8784
rfemur -30.6795 1.81549 27.6417
rtibia 38.717
rfoot -12.6328 -4.8904
rtoes 14.7402
lfemur -11.0061 12.9692 -15.202
ltibia 54.2472
lfoot -14.4857 -2.56285
ltoes -12.9445
827
root 8.41348 17.2856 -10.1349 22.3526 -78.519 -16.4305
lowerback 8.41954 0.697232 3.75116
upperback 0.895685 1.29642 1.52685
thorax -3.74435 0.579118 -0.672826
lowerneck -15.1259 12.5279 -2.77977
upperneck 16.2364 17.5052 1.00165
head 7.10122 8.28486 2.51522
rclavicle 2.22639e-014 -1.47101e-014
rhumerus 139.841 138.211 76.8936
rradius 95.5953
rwrist 6.77535
rhand -31.4268 25.5249
rfingers 7.12502
rthumb -4.69528 -4.40307
lclavicle 2.22639e-014 -1.47101e-014
lhumerus -42.0423 -35.8409 113.358
lradius 95.2752
lwrist 37.7373
lhand -24.3244 11.7481
lfingers 7.12502
lthumb 2.16409 41.7169
rfemur -31.1493 1.60997 27.4008
rtibia 38.7382
rfoot -12.4155 -5.20034
rtoes 14.715
lfemur -10.125 12.7827 -15.4307
ltibia 53.1436
lfoot -14.2608 -2.54628
ltoes -12.8933
828
root 8.48478 17.2852 -10.1414 21.0344 -77.978 -14.9243
lowerback 8.37757 0.613828 3.7036
upperback 0.859113 1.18218 1.54869
thorax -3.76476 0.523123 -0.610316
lowerneck -15.1292 12.4681 -2.76044
upperneck 16.1522 17.4362 0.896626
head 7.08807 8.24587 2.47144
rclavicle 3.72721e-015 7.95139e-015
rhumerus 139.793 138.157 76.921
rradius 95.6503
rwrist 6.86924
rhand -31.1 25.5615
rfingers 7.12502
rthumb -4.37974 -4.37322
lclavicle 3.72721e-015 7.95139e-015
lhumerus -42.0691 -35.7777 113.35
lradius 95.322
lwrist 37.7167
lhand -24.2668 11.6514
lfingers 7.12502
lthumb 2.21971 41.6196
rfemur -31.6273 1.39947 27.1444
rtibia 38.7771
rfoot -12.202 -5.51127
rtoes 14.7032
lfemur -9.23996 12.5763 -15.6715
ltibia 51.9603
lfoot -13.9864 -2.47039
ltoes -12.7365
829
root 8.55784 17.2838 -10.1472 19.7773 -77.429 -13.4783
lowerback 8.33505 0.533624 3.65109
upperback 0.827379 1.0713 1.5645
thorax -3.77938 0.469004 -0.551656
lowerneck -15.1316 12.4001 -2.75205
upperneck 16.0597 17.3573 0.796085
head 7.07077 8.20231 2.42897
rclavicle 1.75427e-014 1.11319e-014
rhumerus 139.761 138.111 76.9729
rradius 95.6986
rwrist 6.989
rhand -30.7805 25.5896
rfingers 7.12502
rthumb -4.0712 -4.35122
lclavicle 1.75427e-014 1.11319e-014
lhumerus -42.0761 -35.7202 113.331
lradius 95.3576
lwrist 37.6804
lhand -24.2776 11.6046
lfingers 7.12502
lthumb 2.20929 41.5729
rfemur -32.1183 1.16898 26.8688
rtibia 38.8336
rfoot -11.9916 -5.81191
rtoes 14.6898
lfemur -8.35771 12.3368 -15.9346
ltibia 50.7012
lfoot -13.6477 -2.3335
ltoes -12.4527
830
root 8.63298 17.2814 -10.153 18.6093 -76.8683 -12.1189
lowerback 8.29605 0.453847 3.59508
upperback 0.799748 0.960518 1.57528
thorax -3.79137 0.415047 -0.496311
lowerneck -15.1358 12.3265 -2.74814
upperneck 15.9612 17.271 0.697754
head 7.05124 8.1554 2.38689
rclavicle 4.27387e-015 1.98785e-015
rhumerus 139.758 138.077 77.0408
rradius 95.7339
rwrist 7.15269
rhand -30.4775 25.6055
rfingers 7.12502
rthumb -3.77862 -4.34071
lclavicle 4.27387e-015 1.98785e-015
lhumerus -42.0745 -35.6733 113.305
lradius 95.3838
lwrist 37.6375
lhand -24.3072 11.5573
lfingers 7.12502
lthumb 2.1807 41.5259
rfemur -32.6242 0.929976 26.5827
rtibia 38.9054
rfoot -11.7812 -6.11393
rtoes 14.6738
lfemur -7.4873 12.0513 -16.2084
ltibia 49.3737
lfoot -13.2039 -2.14894
ltoes -12.0882
831
root 8.70984 17.278 -10.1584 17.5446 -76.3025 -10.8601
lowerback 8.2529 0.377869 3.54182
upperback 0.77859 0.854409 1.58242
thorax -3.79379 0.363531 -0.446793
lowerneck -15.1469 12.2465 -2.74648
upperneck 15.8612 17.176 0.602022
head 7.03207 8.10447 2.34552
rclavicle -3.67752e-015 -3.97569e-015
rhumerus 139.783 138.055 77.1282
rradius 95.7593
rwrist 7.33294
rhand -30.2005 25.624
rfingers 7.12502
rthumb -3.51112 -4.32678
lclavicle -3.67752e-015 -3.97569e-015
lhumerus -42.0564 -35.6432 113.273
lradius 95.3923
lwrist 37.6077
lhand -24.2763 11.5669
lfingers 7.12502
lthumb 2.21055 41.5352
rfemur -33.1442 0.688888 26.287
rtibia 38.9916
rfoot -11.5708 -6.41413
rtoes 14.669
lfemur -6.63308 11.7164 -16.4919
ltibia 47.9852
lfoot -12.6288 -1.91274
ltoes -11.5909
832
root 8.78894 17.2734 -10.1643 16.5944 -75.7313 -9.7047
lowerback 8.21149 0.305279 3.4756
upperback 0.756161 0.751956 1.59452
thorax -3.79836 0.314021 -0.385347
lowerneck -15.1697 12.1629 -2.748
upperneck 15.7704 17.077 0.510113
head 7.01719 8.05128 2.30663
rclavicle -1.18277e-014 7.95139e-016
rhumerus 139.826 138.035 77.231
rradius 95.7789
rwrist 7.50117
rhand -29.9209 25.6396
rfingers 7.12502
rthumb -3.24104 -4.31554
lclavicle -1.18277e-014 7.95139e-016
lhumerus -42.0191 -35.6133 113.239
lradius 95.384
lwrist 37.6147
lhand -24.2928 11.5307
lfingers 7.12502
lthumb 2.1946 41.4991
rfemur -33.6896 0.457246 25.9876
rtibia 39.0909
rfoot -11.3556 -6.72275
rtoes 14.6792
lfemur -5.81336 11.3373 -16.7792
ltibia 46.545
lfoot -11.9042 -1.62248
ltoes -11.0508
833
root 8.87046 17.2674 -10.1711 15.749 -75.1586 -8.64189
lowerback 8.16943 0.23811 3.38772
upperback 0.735032 0.654987 1.61584
thorax -3.80111 0.267651 -0.302875
lowerneck -15.2046 12.0749 -2.75463
upperneck 15.6855 16.9739 0.416745
head 7.00598 7.99531 2.26876
rclavicle -5.79457e-014 3.57812e-015
rhumerus 139.893 138.009 77.3551
rradius 95.795
rwrist 7.62519
rhand -29.6693 25.6545
rfingers 7.12502
rthumb -2.99805 -4.30414
lclavicle -5.79457e-014 3.57812e-015
lhumerus -41.9591 -35.5656 113.216
lradius 95.3583
lwrist 37.6531
lhand -24.2544 11.5052
lfingers 7.12502
lthumb 2.23162 41.4733
rfemur -34.2649 0.237043 25.6849
rtibia 39.2068
rfoot -11.1357 -7.04087
rtoes 14.7002
lfemur -5.03434 10.9195 -17.068
ltibia 45.059
lfoot -11.045 -1.30275
ltoes -10.5787
834
root 8.95438 17.2597 -10.1787 15.0168 -74.588 -7.68297
lowerback 8.13169 0.178837 3.28607
upperback 0.714297 0.567711 1.64419
thorax -3.80542 0.226314 -0.206572
lowerneck -15.2587 11.9828 -2.7595
upperneck 15.6162 16.8656 0.327662
head 7.00285 7.9364 2.23353
rclavicle 3.21037e-014 1.19271e-014
rhumerus 139.982 137.986 77.4957
rradius 95.8072
rwrist 7.70138
rhand -29.4564 25.6792
rfingers 7.12502
rthumb -2.79245 -4.28224
lclavicle 3.21037e-014 1.19271e-014
lhumerus -41.8763 -35.5092 113.193
lradius 95.3189
lwrist 37.7346
lhand -24.2022 11.4795
lfingers 7.12502
lthumb 2.28207 41.4471
rfemur -34.8707 0.0298264 25.3846
rtibia 39.3441
rfoot -10.9128 -7.36661
rtoes 14.7378
lfemur -4.29403 10.4641 -17.3571
ltibia 43.531
lfoot -10.1361 -0.940853
ltoes -10.3811
835
root 9.04097 17.2497 -10.1875 14.3899 -74.0198 -6.8188
lowerback 8.10398 0.126967 3.16197
upperback 0.689894 0.489249 1.68284
thorax -3.81881 0.189637 -0.0880539
lowerneck -15.3215 11.8865 -2.76373
upperneck 15.5564 16.7519 0.239807
head 7.00418 7.87454 2.19908
rclavicle 1.64991e-014 7.95139e-015
rhumerus 140.079 137.958 77.6543
rradius 95.8241
rwrist 7.73455
rhand -29.2327 25.7299
rfingers 7.12502
rthumb -2.57649 -4.23428
lclavicle 1.64991e-014 7.95139e-015
lhumerus -41.7829 -35.4553 113.172
lradius 95.2787
lwrist 37.8708
lhand -24.1906 11.4354
lfingers 7.12502
lthumb 2.29328 41.4028
rfemur -35.515 -0.166024 25.0896
rtibia 39.5122
rfoot -10.6905 -7.69748
rtoes 14.7957
lfemur -3.59218 9.97416 -17.642
ltibia 41.9621
lfoot -9.30386 -0.538019
ltoes -10.6645
836
root 9.13023 17.2365 -10.1971 13.8721 -73.4511 -6.06124
lowerback 8.09325 0.0790126 3.02653
upperback 0.662041 0.416264 1.73453
thorax -3.8449 0.155769 0.0496921
lowerneck -15.3797 11.7841 -2.79268
upperneck 15.4929 16.6317 0.169037
head 6.9999 7.81017 2.17178
rclavicle 4.79071e-014 -1.94809e-014
rhumerus 140.183 137.927 77.828
rradius 95.8393
rwrist 7.75607
rhand -29.0212 25.8213
rfingers 7.12502
rthumb -2.37215 -4.14524
lclavicle 4.79071e-014 -1.94809e-014
lhumerus -41.68 -35.3949 113.155
lradius 95.236
lwrist 38.0319
lhand -24.1466 11.3953
lfingers 7.12502
lthumb 2.3358 41.3623
rfemur -36.1932 -0.359866 24.8077
rtibia 39.7177
rfoot -10.4729 -8.02859
rtoes 14.8546
lfemur -2.91208 9.44353 -17.9157
ltibia 40.3554
lfoot -8.7631 -0.0980811
ltoes -11.948
